<?xml version="1.0" standalone="no"?>
<!DOCTYPE svg PUBLIC "-//W3C//DTD SVG 20010904//EN"
 "http://www.w3.org/TR/2001/REC-SVG-20010904/DTD/svg10.dtd">
<svg version="1.0" xmlns="http://www.w3.org/2000/svg"
 width="1024.000000pt" height="1024.000000pt" viewBox="0 0 1024.000000 1024.000000"
 preserveAspectRatio="xMidYMid meet">
<metadata>
Created by potrace 1.14, written by Peter Selinger 2001-2017
</metadata>
<g transform="translate(0.000000,1024.000000) scale(0.100000,-0.100000)"
fill="#000000" stroke="none">
<path d="M2517 10233 c-1 -1 -38 -3 -83 -4 -84 -2 -297 -35 -399 -63 -286 -75
-592 -254 -809 -472 -237 -239 -375 -452 -475 -734 -31 -88 -64 -212 -76 -290
-3 -25 -9 -58 -12 -75 -16 -94 -18 -528 -17 -3541 1 -3037 3 -3318 18 -3414
30 -191 74 -349 133 -480 50 -111 78 -168 94 -190 9 -14 40 -61 69 -105 219
-332 576 -619 925 -742 17 -6 39 -14 50 -19 57 -21 227 -63 285 -70 30 -4 64
-8 75 -11 72 -14 535 -17 3540 -17 3291 0 3351 0 3418 19 37 11 67 23 67 26 0
4 10 9 23 13 45 11 165 127 190 184 6 15 14 29 17 32 3 3 15 34 25 69 17 56
19 96 19 295 -1 143 -6 248 -13 276 -13 49 -51 133 -63 138 -5 2 -8 9 -8 15 0
7 -23 36 -50 65 -28 28 -48 52 -46 52 3 0 1 12 -4 26 -6 15 -13 43 -15 63 -7
54 -16 123 -21 150 -22 143 -21 833 1 991 2 14 6 48 10 75 17 137 25 158 80
216 60 62 96 128 116 209 20 83 20 6882 0 6955 -45 164 -170 293 -331 342 -51
15 -304 16 -3393 17 -1836 1 -3339 0 -3340 -1z m5110 -2571 c44 -25 47 -45 49
-292 2 -217 1 -238 -17 -277 -17 -35 -27 -44 -57 -49 -54 -10 -4270 -11 -4314
0 -20 4 -47 19 -60 33 -23 24 -23 28 -24 267 -2 271 3 297 56 320 45 19 4334
17 4367 -2z m0 -1280 c46 -26 50 -50 49 -314 l-1 -248 -28 -27 -27 -28 -2156
-3 c-1390 -1 -2169 1 -2193 8 -63 17 -66 26 -67 298 -1 263 4 294 53 318 35
17 4340 13 4370 -4z m626 -3821 c4 -1 5 -22 2 -48 -15 -149 -18 -242 -19 -573
-1 -313 2 -414 19 -626 l2 -31 -2891 1 c-2735 2 -2895 3 -2956 20 -73 20 -189
75 -222 106 -12 11 -25 20 -30 20 -17 0 -136 152 -167 214 -67 135 -85 308
-46 449 27 96 107 225 178 286 11 9 34 30 53 47 19 17 47 37 62 45 15 8 29 16
32 19 23 23 135 58 212 66 35 3 64 7 65 8 1 1 5693 -2 5706 -3z"/>
</g>
</svg>
